<?xml version="1.0" encoding="UTF-8" standalone="no"?>
<!DOCTYPE svg PUBLIC "-//W3C//DTD SVG 1.1//EN" "http://www.w3.org/Graphics/SVG/1.1/DTD/svg11.dtd">
<svg width="100%" height="100%" viewBox="0 0 64 64" version="1.1" xmlns="http://www.w3.org/2000/svg" xmlns:xlink="http://www.w3.org/1999/xlink" xml:space="preserve" xmlns:serif="http://www.serif.com/" style="fill-rule:evenodd;clip-rule:evenodd;stroke-linejoin:round;stroke-miterlimit:2;">
    <rect id="Artboard1" x="0" y="0" width="64" height="64" style="fill:none;"/>
    <g id="Artboard11" serif:id="Artboard1">
        <circle cx="32" cy="32" r="32" style="fill:rgb(247,147,26);"/>
        <g transform="matrix(0.394086,0,0,0.394086,-17.2029,-16.6834)">
            <path d="M159.473,113.867C161.035,103.516 153.125,97.852 142.285,94.141L145.801,80.078L137.207,77.93L133.789,91.602C131.543,91.016 129.199,90.527 126.953,89.942L130.371,76.172L121.777,74.023L118.262,88.086C116.406,87.696 114.551,87.207 112.793,86.816L100.977,83.886L98.73,93.066C98.73,93.066 105.078,94.531 104.98,94.629C108.496,95.508 109.082,97.754 108.984,99.609L104.98,115.625C105.176,115.723 105.566,115.82 105.86,115.918C105.566,115.82 105.273,115.723 104.98,115.723L99.414,138.183C99.024,139.258 97.949,140.82 95.508,140.234C95.605,140.332 89.258,138.672 89.258,138.672L84.961,148.438L96.094,151.172C98.144,151.66 100.195,152.246 102.246,152.734L98.73,166.992L107.324,169.141L110.84,155.078C113.122,155.652 115.4,156.238 117.676,156.836L114.16,170.898L122.754,173.047L126.27,158.789C140.918,161.523 151.855,160.449 156.543,147.266C160.253,136.621 156.348,130.469 148.633,126.465C154.102,125.195 158.301,121.485 159.473,113.867ZM139.843,141.309C137.207,151.953 119.238,146.191 113.477,144.727L118.164,125.879C124.024,127.344 142.676,130.273 139.844,141.309L139.843,141.309ZM142.48,113.672C140.04,123.34 125.098,118.457 120.313,117.188L124.609,100.098C129.492,101.368 145.019,103.613 142.48,113.672Z" style="fill:white;fill-rule:nonzero;"/>
        </g>
    </g>
</svg>
